<svg width="20" height="20" viewBox="0 0 20 20" fill="none" xmlns="http://www.w3.org/2000/svg">
<circle cx="10" cy="10" r="8.75" fill="url(#paint0_linear_5289_70004)"/>
<path d="M11.5293 5.40877C11.7184 5.07866 11.6053 4.65704 11.2767 4.46705C10.9482 4.27705 10.5285 4.39063 10.3394 4.72074L10.0095 5.29651L9.67968 4.72074C9.49057 4.39063 9.0709 4.27705 8.74233 4.46705C8.41375 4.65704 8.30069 5.07866 8.48981 5.40877L9.21751 6.67902L6.91578 10.6968H5.06144C4.68233 10.6968 4.375 11.0056 4.375 11.3864C4.375 11.7673 4.68233 12.0761 5.06144 12.0761H11.5203C11.5769 11.9266 11.6365 11.6701 11.5731 11.4343C11.4778 11.0799 11.125 10.6968 10.5339 10.6968H8.49981L11.5293 5.40877Z" fill="white"/>
<path d="M7.27275 12.8387C7.15564 12.708 6.89323 12.4992 6.66314 12.4305C6.31229 12.3257 6.04633 12.3914 5.91214 12.4487L5.40082 13.3412C5.21171 13.6713 5.32477 14.093 5.65334 14.283C5.98192 14.4729 6.40159 14.3594 6.5907 14.0293L7.27275 12.8387Z" fill="white"/>
<path d="M13.8935 12.0761H14.9386C15.3177 12.0761 15.625 11.7673 15.625 11.3864C15.625 11.0056 15.3177 10.6968 14.9386 10.6968H13.1033L11.036 7.08817C10.8824 7.23479 10.5879 7.60936 10.5434 8.03403C10.4862 8.58 10.572 9.03976 10.8294 9.48994C11.6949 11.0035 12.5617 12.5164 13.4284 14.0293C13.6175 14.3594 14.0371 14.4729 14.3657 14.283C14.6943 14.093 14.8074 13.6713 14.6182 13.3412L13.8935 12.0761Z" fill="white"/>
<defs>
<linearGradient id="paint0_linear_5289_70004" x1="10" y1="1.25" x2="10" y2="18.75" gradientUnits="userSpaceOnUse">
<stop stop-color="#2AC9FA"/>
<stop offset="1" stop-color="#1F65EB"/>
</linearGradient>
</defs>
</svg>
