<svg width="44" height="44" viewBox="0 0 44 44" fill="none" xmlns="http://www.w3.org/2000/svg">
<rect width="44" height="44" rx="22" fill="#F5B546"/>
<path d="M18.0554 23.1547C17.9668 23.7355 18.363 24.1387 18.848 24.3396C20.7075 25.1099 23.2951 25.1099 25.1546 24.3396C25.6396 24.1387 26.0358 23.7355 25.9472 23.1547C25.8927 22.7977 25.6235 22.5004 25.424 22.2102C25.1627 21.8254 25.1367 21.4056 25.1367 20.959C25.1367 19.2331 23.7329 17.834 22.0013 17.834C20.2697 17.834 18.8659 19.2331 18.8659 20.959C18.8659 21.4056 18.8399 21.8254 18.5786 22.2102C18.3792 22.5004 18.1099 22.7977 18.0554 23.1547Z" stroke="#1D2739" stroke-linecap="round" stroke-linejoin="round"/>
<path d="M20.332 24.916C20.5231 25.6348 21.1968 26.166 21.9987 26.166C22.8006 26.166 23.4743 25.6348 23.6654 24.916" fill="#1D2739"/>
<path d="M20.332 24.916C20.5231 25.6348 21.1968 26.166 21.9987 26.166C22.8006 26.166 23.4743 25.6348 23.6654 24.916" stroke="#1D2739" stroke-linecap="round" stroke-linejoin="round"/>
</svg>
