<svg width="44" height="44" viewBox="0 0 44 44" fill="none" xmlns="http://www.w3.org/2000/svg">
<rect width="44" height="44" rx="22" fill="#6888E5"/>
<path d="M17.9392 23.5141C17.9534 23.3794 18.051 23.2709 18.2461 23.0538L18.6758 22.5735C18.7808 22.4406 18.8553 22.209 18.8553 22.0006C18.8553 21.7923 18.7807 21.5607 18.6757 21.4277L18.2461 20.9474C18.051 20.7304 17.9534 20.6219 17.9392 20.4872C17.9251 20.3525 17.998 20.226 18.1438 19.973L18.3494 19.6161C18.505 19.3461 18.5827 19.2112 18.7151 19.1573C18.8474 19.1035 18.997 19.146 19.2964 19.2309L19.8048 19.3741C19.9959 19.4182 20.1963 19.3932 20.3708 19.3036L20.5112 19.2226C20.6608 19.1267 20.7759 18.9855 20.8396 18.8194L20.9787 18.4038C21.0702 18.1288 21.116 17.9913 21.2249 17.9126C21.3338 17.834 21.4785 17.834 21.7678 17.834H22.2323C22.5216 17.834 22.6663 17.834 22.7751 17.9126C22.8841 17.9913 22.9298 18.1288 23.0213 18.4038L23.1604 18.8194C23.2241 18.9855 23.3392 19.1267 23.4888 19.2226L23.6292 19.3036C23.8037 19.3932 24.0042 19.4182 24.1953 19.3741L24.7037 19.2309C25.003 19.146 25.1526 19.1035 25.285 19.1573C25.4173 19.2112 25.4951 19.3461 25.6506 19.6161L25.8563 19.973C26.0021 20.226 26.0749 20.3525 26.0608 20.4872C26.0466 20.6219 25.9491 20.7304 25.7539 20.9474L25.3243 21.4277C25.2193 21.5607 25.1447 21.7923 25.1447 22.0006C25.1447 22.209 25.2193 22.4406 25.3243 22.5735L25.7539 23.0538C25.9491 23.2709 26.0466 23.3794 26.0608 23.5141C26.0749 23.6488 26.0021 23.7753 25.8563 24.0283L25.6506 24.3852C25.4951 24.6551 25.4173 24.7901 25.285 24.8439C25.1526 24.8977 25.003 24.8553 24.7037 24.7703L24.1953 24.6271C24.0041 24.583 23.8036 24.6081 23.6291 24.6977L23.4888 24.7787C23.3392 24.8746 23.2241 25.0158 23.1605 25.1819L23.0213 25.5975C22.9298 25.8725 22.8841 26.01 22.7751 26.0887C22.6663 26.1673 22.5216 26.1673 22.2323 26.1673H21.7678C21.4785 26.1673 21.3338 26.1673 21.2249 26.0887C21.116 26.01 21.0702 25.8725 20.9787 25.5975" stroke="white" stroke-linecap="round"/>
<path d="M18.1412 24.8241C18.5912 24.3741 20.1212 22.8591 20.2712 22.6841C20.4298 22.4991 20.3012 22.2491 20.3777 21.4741C20.4147 21.0991 20.4954 20.8182 20.7262 20.6091C21.0012 20.3491 21.2262 20.3491 22.0012 20.3316C22.6762 20.3491 22.7562 20.2741 22.8262 20.4491C22.8762 20.5741 22.7262 20.6491 22.5462 20.8491C22.1462 21.2491 21.9112 21.4491 21.8887 21.5741C21.7262 22.1241 22.3662 22.4491 22.7162 22.0991C22.8486 21.9667 23.4612 21.3491 23.5212 21.2991C23.5662 21.2591 23.6739 21.261 23.7262 21.3241C23.7712 21.3683 23.7762 21.3741 23.7712 21.5741C23.7666 21.7592 23.7687 22.025 23.7692 22.2991C23.7699 22.6542 23.7512 23.0491 23.6012 23.2491C23.3012 23.6991 22.8012 23.7241 22.3512 23.7441C21.9262 23.7691 21.5762 23.7241 21.4662 23.8041C21.3762 23.8491 20.9012 24.3491 20.3262 24.9241L19.3012 25.9491C18.4512 26.6241 17.5162 25.5741 18.1412 24.8241Z" stroke="white" stroke-linecap="round"/>
</svg>
