<svg width="20" height="20" viewBox="0 0 20 20" fill="none" xmlns="http://www.w3.org/2000/svg">
<path d="M17.4994 10.417C17.4994 10.417 17.5013 10.0259 17.5013 9.58366C17.5013 5.85171 17.5013 3.98573 16.342 2.82636C15.1826 1.66699 13.3166 1.66699 9.58464 1.66699C5.85269 1.66699 3.98671 1.66699 2.82734 2.82636C1.66797 3.98573 1.66797 5.85171 1.66797 9.58366C1.66797 13.3156 1.66797 15.1816 2.82734 16.341C3.98671 17.5003 5.85269 17.5003 9.58464 17.5003C10.0269 17.5003 10.418 17.4984 10.418 17.4984" stroke="#326543" stroke-width="1.5" stroke-linecap="round"/>
<path d="M1.66797 5.83301H17.5013" stroke="#326543" stroke-width="1.5" stroke-linejoin="round"/>
<path d="M8.33333 13.3333H9.58333M5 13.3333H5.83333M8.33333 10H13.3333M5 10H5.83333" stroke="#326543" stroke-width="1.5" stroke-linecap="round" stroke-linejoin="round"/>
<path d="M13.332 13.333L15.832 15.833M15.832 15.833L18.332 18.333M15.832 15.833L13.332 18.333M15.832 15.833L18.332 13.333" stroke="#326543" stroke-width="1.5" stroke-linecap="round" stroke-linejoin="round"/>
</svg>
