<svg width="20" height="20" viewBox="0 0 20 20" fill="none" xmlns="http://www.w3.org/2000/svg">
<path d="M16.25 4.58301L15.9152 10.0048M3.75 4.58301L4.25384 12.937C4.38287 15.0765 4.4474 16.1463 4.98223 16.9155C5.24667 17.2958 5.58733 17.6169 5.98254 17.8582C6.54196 18.1997 7.23423 18.3023 8.33333 18.333" stroke="#326543" stroke-width="1.5" stroke-linecap="round"/>
<path d="M16.6654 12.5L10.832 18.3329M16.6654 18.3333L10.832 12.5004" stroke="#326543" stroke-width="1.5" stroke-linecap="round" stroke-linejoin="round"/>
<path d="M2.5 4.58366H17.5M13.3797 4.58366L12.8109 3.4101C12.433 2.63054 12.244 2.24076 11.9181 1.99767C11.8458 1.94374 11.7693 1.89578 11.6892 1.85424C11.3283 1.66699 10.8951 1.66699 10.0287 1.66699C9.14067 1.66699 8.69667 1.66699 8.32973 1.86209C8.24842 1.90533 8.17082 1.95524 8.09774 2.0113C7.76803 2.26424 7.58386 2.66828 7.21551 3.47638L6.71077 4.58366" stroke="#326543" stroke-width="1.5" stroke-linecap="round"/>
</svg>
