<svg width="20" height="20" viewBox="0 0 20 20" fill="none" xmlns="http://www.w3.org/2000/svg">
<path d="M2.10697 12.3093C1.92976 13.471 2.72203 14.2773 3.69207 14.6791C7.41104 16.2198 12.5864 16.2198 16.3053 14.6791C17.2754 14.2773 18.0676 13.471 17.8905 12.3093C17.7815 11.5954 17.243 11.0009 16.844 10.4204C16.3214 9.65072 16.2695 8.81114 16.2695 7.91797C16.2695 4.46619 13.4619 1.66797 9.9987 1.66797C6.53547 1.66797 3.72797 4.46619 3.72797 7.91797C3.72789 8.81114 3.67597 9.65072 3.15337 10.4204C2.7544 11.0009 2.21587 11.5954 2.10697 12.3093Z" stroke="#1D2739" stroke-width="1.5" stroke-linecap="round" stroke-linejoin="round"/>
<path d="M6.66797 15.832C7.05004 17.2697 8.39755 18.332 10.0013 18.332C11.6051 18.332 12.9526 17.2697 13.3346 15.832" fill="white"/>
<path d="M6.66797 15.832C7.05004 17.2697 8.39755 18.332 10.0013 18.332C11.6051 18.332 12.9526 17.2697 13.3346 15.832" stroke="#1D2739" stroke-width="1.5" stroke-linecap="round" stroke-linejoin="round"/>
</svg>
