<svg width="20" height="20" viewBox="0 0 20 20" fill="none" xmlns="http://www.w3.org/2000/svg">
<path d="M12.5 2.0835V3.3335C12.5 4.512 12.5 5.10126 12.8661 5.46738C13.2322 5.8335 13.8215 5.8335 15 5.8335H16.25" stroke="#326543" stroke-width="1.5" stroke-linecap="round" stroke-linejoin="round"/>
<path d="M3.33203 13.3332V6.6665C3.33203 4.30948 3.33203 3.13097 4.06426 2.39874C4.7965 1.6665 5.97501 1.6665 8.33203 1.6665H11.8084C12.1489 1.6665 12.3193 1.6665 12.4724 1.72994C12.6255 1.79337 12.746 1.9138 12.9869 2.15466L16.1772 5.34501C16.418 5.58587 16.5385 5.7063 16.6019 5.85945C16.6654 6.01259 16.6654 6.1829 16.6654 6.52353V13.3332C16.6654 15.6902 16.6654 16.8687 15.9331 17.6009C15.2009 18.3332 14.0224 18.3332 11.6654 18.3332H8.33203C5.97501 18.3332 4.7965 18.3332 4.06426 17.6009C3.33203 16.8687 3.33203 15.6902 3.33203 13.3332Z" stroke="#326543" stroke-width="1.5" stroke-linecap="round" stroke-linejoin="round"/>
<path d="M10 9.1665V11.6665M10 11.6665V14.1665M10 11.6665H6.25M10 11.6665H13.75M7.91667 14.1665H12.0833C12.869 14.1665 13.2618 14.1665 13.5059 13.9224C13.75 13.6783 13.75 13.2855 13.75 12.4998V10.8332C13.75 10.0475 13.75 9.65467 13.5059 9.41059C13.2618 9.1665 12.869 9.1665 12.0833 9.1665H7.91667C7.13099 9.1665 6.73816 9.1665 6.49408 9.41059C6.25 9.65467 6.25 10.0475 6.25 10.8332V12.4998C6.25 13.2855 6.25 13.6783 6.49408 13.9224C6.73816 14.1665 7.13099 14.1665 7.91667 14.1665Z" stroke="#326543" stroke-width="1.5" stroke-linecap="round" stroke-linejoin="round"/>
</svg>
