<svg width="20" height="20" viewBox="0 0 20 20" fill="none" xmlns="http://www.w3.org/2000/svg">
<path d="M14.168 2.5H5.83464C3.53345 2.5 1.66797 4.36548 1.66797 6.66667V13.3333C1.66797 15.6345 3.53345 17.5 5.83464 17.5H14.168C16.4692 17.5 18.3346 15.6345 18.3346 13.3333V6.66667C18.3346 4.36548 16.4692 2.5 14.168 2.5Z" stroke="#1D2739" stroke-width="1.5" stroke-linejoin="round"/>
<path d="M4.16797 13.3346C5.17489 11.1837 8.92814 11.0422 10.0013 13.3346H4.16797Z" fill="white"/>
<path d="M4.16797 13.3346C5.17489 11.1837 8.92814 11.0422 10.0013 13.3346" stroke="#1D2739" stroke-width="1.5" stroke-linecap="round" stroke-linejoin="round"/>
<path d="M8.7513 7.4987C8.7513 8.4192 8.00511 9.16536 7.08464 9.16536C6.16416 9.16536 5.41797 8.4192 5.41797 7.4987C5.41797 6.57822 6.16416 5.83203 7.08464 5.83203C8.00511 5.83203 8.7513 6.57822 8.7513 7.4987Z" stroke="#1D2739" stroke-width="1.5"/>
<path d="M11.668 7.5H15.0013" stroke="#1D2739" stroke-width="1.5" stroke-linecap="round"/>
<path d="M11.668 10.418H14.168" stroke="#1D2739" stroke-width="1.5" stroke-linecap="round"/>
</svg>
