<svg width="20" height="20" viewBox="0 0 20 20" fill="none" xmlns="http://www.w3.org/2000/svg">
<path d="M5.83203 15.0002V12.9168M5.83203 12.9168V11.6668C5.83203 11.274 5.83203 11.0776 5.96017 10.9555C6.08831 10.8335 6.29456 10.8335 6.70703 10.8335H7.29036C7.89442 10.8335 8.38411 11.2998 8.38411 11.8752C8.38411 12.4505 7.89442 12.9168 7.29036 12.9168H5.83203ZM17.4987 10.8335H16.4049C15.7174 10.8335 15.3738 10.8335 15.1602 11.0369C14.9466 11.2403 14.9466 11.5677 14.9466 12.2224V12.9168M14.9466 12.9168V15.0002M14.9466 12.9168H16.7695M13.1237 12.9168C13.1237 14.0674 12.1443 15.0002 10.9362 15.0002C10.6636 15.0002 10.5273 15.0002 10.4258 14.9443C10.1827 14.8107 10.207 14.5402 10.207 14.3057V11.5279C10.207 11.2935 10.1827 11.023 10.4258 10.8893C10.5273 10.8335 10.6636 10.8335 10.9362 10.8335C12.1443 10.8335 13.1237 11.7662 13.1237 12.9168Z" stroke="#326543" stroke-width="1.5" stroke-linecap="round" stroke-linejoin="round"/>
<path d="M12.5 18.3332H8.93942C6.22172 18.3332 4.86288 18.3332 3.91923 17.6683C3.64885 17.4778 3.40882 17.2519 3.20642 16.9974C2.5 16.1093 2.5 14.8303 2.5 12.2726V10.1513C2.5 7.68205 2.5 6.44739 2.89078 5.4613C3.51901 3.87602 4.84762 2.62557 6.53197 2.0343C7.57969 1.6665 8.8915 1.6665 11.5152 1.6665C13.0144 1.6665 13.764 1.6665 14.3627 1.87667C15.3252 2.21455 16.0843 2.92909 16.4433 3.83495C16.6667 4.39844 16.6667 5.10395 16.6667 6.51499V8.33317" stroke="#326543" stroke-width="1.5" stroke-linecap="round" stroke-linejoin="round"/>
<path d="M2.5 9.99984C2.5 8.46575 3.74365 7.22206 5.27778 7.22206C5.8326 7.22206 6.4867 7.31928 7.02614 7.17474C7.50543 7.0463 7.8798 6.67194 8.00823 6.19264C8.15278 5.6532 8.05556 4.9991 8.05556 4.44428C8.05556 2.91015 9.29925 1.6665 10.8333 1.6665" stroke="#326543" stroke-width="1.5" stroke-linecap="round" stroke-linejoin="round"/>
</svg>
