<svg width="20" height="20" viewBox="0 0 20 20" fill="none" xmlns="http://www.w3.org/2000/svg">
<path d="M5.83203 15.0007V12.9173M5.83203 12.9173V11.6673C5.83203 11.2745 5.83203 11.0781 5.96017 10.956C6.08831 10.834 6.29456 10.834 6.70703 10.834H7.29036C7.89442 10.834 8.38411 11.3003 8.38411 11.8757C8.38411 12.451 7.89442 12.9173 7.29036 12.9173H5.83203ZM17.4987 10.834H16.4049C15.7174 10.834 15.3738 10.834 15.1602 11.0374C14.9466 11.2408 14.9466 11.5682 14.9466 12.2229V12.9173M14.9466 12.9173V15.0007M14.9466 12.9173H16.7695M13.1237 12.9173C13.1237 14.0679 12.1443 15.0007 10.9362 15.0007C10.6636 15.0007 10.5273 15.0007 10.4258 14.9448C10.1827 14.8112 10.207 14.5407 10.207 14.3062V11.5284C10.207 11.294 10.1827 11.0235 10.4258 10.8898C10.5273 10.834 10.6636 10.834 10.9362 10.834C12.1443 10.834 13.1237 11.7667 13.1237 12.9173Z" stroke="#1D2739" stroke-width="1.5" stroke-linecap="round" stroke-linejoin="round"/>
<path d="M12.5 18.3327H8.93942C6.22172 18.3327 4.86288 18.3327 3.91923 17.6678C3.64885 17.4773 3.40882 17.2514 3.20642 16.9969C2.5 16.1088 2.5 14.8298 2.5 12.2721V10.1508C2.5 7.68156 2.5 6.4469 2.89078 5.46081C3.51901 3.87553 4.84762 2.62508 6.53197 2.03381C7.57969 1.66602 8.8915 1.66602 11.5152 1.66602C13.0144 1.66602 13.764 1.66602 14.3627 1.87618C15.3252 2.21406 16.0843 2.9286 16.4433 3.83447C16.6667 4.39795 16.6667 5.10347 16.6667 6.5145V8.33268" stroke="#1D2739" stroke-width="1.5" stroke-linecap="round" stroke-linejoin="round"/>
<path d="M2.5 9.99935C2.5 8.46527 3.74365 7.22157 5.27778 7.22157C5.8326 7.22157 6.4867 7.31879 7.02614 7.17425C7.50543 7.04582 7.8798 6.67145 8.00823 6.19215C8.15278 5.65272 8.05556 4.99862 8.05556 4.44379C8.05556 2.90967 9.29925 1.66602 10.8333 1.66602" stroke="#1D2739" stroke-width="1.5" stroke-linecap="round" stroke-linejoin="round"/>
</svg>
