      <svg width="20" height="20" viewBox="0 0 20 20" fill="none" xmlns="http://www.w3.org/2000/svg">
              <path d="M10.8333 3.33398H2.5" stroke="#1D2739" stroke-width="1.5" stroke-linecap="round" stroke-linejoin="round"/>
              <path d="M9.16667 15.834H2.5" stroke="#1D2739" stroke-width="1.5" stroke-linecap="round" stroke-linejoin="round"/>
              <path d="M17.5013 15.834H14.168" stroke="#1D2739" stroke-width="1.5" stroke-linecap="round" stroke-linejoin="round"/>
              <path d="M17.5013 9.58398H9.16797" stroke="#1D2739" stroke-width="1.5" stroke-linecap="round" stroke-linejoin="round"/>
              <path d="M17.4987 3.33398H15.832" stroke="#1D2739" stroke-width="1.5" stroke-linecap="round" stroke-linejoin="round"/>
              <path d="M4.16667 9.58398H2.5" stroke="#1D2739" stroke-width="1.5" stroke-linecap="round" stroke-linejoin="round"/>
              <path d="M12.082 1.66602C12.4703 1.66602 12.6644 1.66602 12.8176 1.72945C13.0218 1.81402 13.184 1.97626 13.2686 2.18045C13.332 2.33359 13.332 2.52773 13.332 2.91602V3.74935C13.332 4.13763 13.332 4.33177 13.2686 4.48492C13.184 4.68911 13.0218 4.85134 12.8176 4.93592C12.6644 4.99935 12.4703 4.99935 12.082 4.99935C11.6938 4.99935 11.4996 4.99935 11.3464 4.93592C11.1423 4.85134 10.98 4.68911 10.8954 4.48492C10.832 4.33177 10.832 4.13763 10.832 3.74935V2.91602C10.832 2.52773 10.832 2.33359 10.8954 2.18045C10.98 1.97626 11.1423 1.81402 11.3464 1.72945C11.4996 1.66602 11.6938 1.66602 12.082 1.66602Z" stroke="#1D2739" stroke-width="1.5" stroke-linecap="round" stroke-linejoin="round"/>
              <path d="M10.418 14.166C10.8062 14.166 11.0004 14.166 11.1536 14.2294C11.3577 14.314 11.52 14.4763 11.6046 14.6804C11.668 14.8336 11.668 15.0278 11.668 15.416V16.2493C11.668 16.6376 11.668 16.8318 11.6046 16.9849C11.52 17.1891 11.3577 17.3513 11.1536 17.4359C11.0004 17.4993 10.8062 17.4993 10.418 17.4993C10.0297 17.4993 9.83555 17.4993 9.68239 17.4359C9.47822 17.3513 9.31597 17.1891 9.23139 16.9849C9.16797 16.8318 9.16797 16.6376 9.16797 16.2493V15.416C9.16797 15.0278 9.16797 14.8336 9.23139 14.6804C9.31597 14.4763 9.47822 14.314 9.68239 14.2294C9.83555 14.166 10.0297 14.166 10.418 14.166Z" stroke="#1D2739" stroke-width="1.5" stroke-linecap="round" stroke-linejoin="round"/>
              <path d="M7.91797 7.91602C8.30625 7.91602 8.50039 7.91602 8.65355 7.97945C8.85772 8.06402 9.01997 8.22626 9.10455 8.43043C9.16797 8.5836 9.16797 8.77777 9.16797 9.16602V9.99935C9.16797 10.3876 9.16797 10.5818 9.10455 10.7349C9.01997 10.9391 8.85772 11.1013 8.65355 11.1859C8.50039 11.2493 8.30625 11.2493 7.91797 11.2493C7.52969 11.2493 7.33554 11.2493 7.1824 11.1859C6.97821 11.1013 6.81598 10.9391 6.7314 10.7349C6.66797 10.5818 6.66797 10.3876 6.66797 9.99935V9.16602C6.66797 8.77777 6.66797 8.5836 6.7314 8.43043C6.81598 8.22626 6.97821 8.06402 7.1824 7.97945C7.33554 7.91602 7.52969 7.91602 7.91797 7.91602Z" stroke="#1D2739" stroke-width="1.5" stroke-linecap="round" stroke-linejoin="round"/>
              </svg>