          <svg width="20" height="20" viewBox="0 0 20 20" fill="none" xmlns="http://www.w3.org/2000/svg">
                    <path d="M12.5 2.08398V3.33398C12.5 4.51249 12.5 5.10175 12.8661 5.46787C13.2322 5.83398 13.8215 5.83398 15 5.83398H16.25" stroke="#1D2739" stroke-width="1.5" stroke-linecap="round" stroke-linejoin="round"/>
                    <path d="M3.33203 13.3327V6.66602C3.33203 4.30899 3.33203 3.13048 4.06426 2.39825C4.7965 1.66602 5.97501 1.66602 8.33203 1.66602H11.8084C12.1489 1.66602 12.3193 1.66602 12.4724 1.72945C12.6255 1.79288 12.746 1.91332 12.9869 2.15417L16.1772 5.34452C16.418 5.58538 16.5385 5.70582 16.6019 5.85896C16.6654 6.0121 16.6654 6.18242 16.6654 6.52304V13.3327C16.6654 15.6897 16.6654 16.8682 15.9331 17.6004C15.2009 18.3327 14.0224 18.3327 11.6654 18.3327H8.33203C5.97501 18.3327 4.7965 18.3327 4.06426 17.6004C3.33203 16.8682 3.33203 15.6897 3.33203 13.3327Z" stroke="#1D2739" stroke-width="1.5" stroke-linecap="round" stroke-linejoin="round"/>
                    <path d="M10 9.16602V11.666M10 11.666V14.166M10 11.666H6.25M10 11.666H13.75M7.91667 14.166H12.0833C12.869 14.166 13.2618 14.166 13.5059 13.9219C13.75 13.6778 13.75 13.285 13.75 12.4993V10.8327C13.75 10.047 13.75 9.65418 13.5059 9.4101C13.2618 9.16602 12.869 9.16602 12.0833 9.16602H7.91667C7.13099 9.16602 6.73816 9.16602 6.49408 9.4101C6.25 9.65418 6.25 10.047 6.25 10.8327V12.4993C6.25 13.285 6.25 13.6778 6.49408 13.9219C6.73816 14.166 7.13099 14.166 7.91667 14.166Z" stroke="#1D2739" stroke-width="1.5" stroke-linecap="round" stroke-linejoin="round"/>
                    </svg>