<svg width="20" height="20" viewBox="0 0 20 20" fill="none" xmlns="http://www.w3.org/2000/svg">
<path d="M8.57711 11.6804C8.53911 10.8538 7.97426 10.8335 7.20805 10.8335C6.02772 10.8335 5.83203 11.1155 5.83203 12.2224V13.6112C5.83203 14.7182 6.02772 15.0002 7.20805 15.0002C7.97426 15.0002 8.53911 14.9798 8.57711 14.1532M17.4987 10.8335L16.2791 14.0937C16.053 14.698 15.94 15.0002 15.761 15.0002C15.582 15.0002 15.469 14.698 15.2429 14.0937L14.0234 10.8335M12.2665 10.8335H11.4561C11.1322 10.8335 10.9703 10.8335 10.8425 10.8864C10.4075 11.0664 10.4134 11.4896 10.4134 11.8752C10.4134 12.2607 10.4075 12.684 10.8425 12.864C10.9703 12.9168 11.1322 12.9168 11.4561 12.9168C11.7799 12.9168 11.9419 12.9168 12.0696 12.9697C12.5046 13.1497 12.4987 13.5729 12.4987 13.9585C12.4987 14.3441 12.5046 14.7672 12.0696 14.9473C11.9419 15.0002 11.7799 15.0002 11.4561 15.0002H10.5734" stroke="#326543" stroke-width="1.5" stroke-linecap="round"/>
<path d="M12.5 18.3332H8.93942C6.22172 18.3332 4.86288 18.3332 3.91923 17.6683C3.64885 17.4778 3.40882 17.2519 3.20642 16.9974C2.5 16.1093 2.5 14.8303 2.5 12.2726V10.1513C2.5 7.68205 2.5 6.44739 2.89078 5.4613C3.51901 3.87602 4.84762 2.62557 6.53197 2.0343C7.57969 1.6665 8.8915 1.6665 11.5152 1.6665C13.0144 1.6665 13.764 1.6665 14.3627 1.87667C15.3252 2.21455 16.0843 2.92909 16.4433 3.83495C16.6667 4.39844 16.6667 5.10395 16.6667 6.51499V8.33317" stroke="#326543" stroke-width="1.5" stroke-linecap="round" stroke-linejoin="round"/>
<path d="M2.5 9.99984C2.5 8.46575 3.74365 7.22206 5.27778 7.22206C5.8326 7.22206 6.4867 7.31928 7.02614 7.17474C7.50543 7.0463 7.8798 6.67194 8.00823 6.19264C8.15278 5.6532 8.05556 4.9991 8.05556 4.44428C8.05556 2.91015 9.29925 1.6665 10.8333 1.6665" stroke="#326543" stroke-width="1.5" stroke-linecap="round" stroke-linejoin="round"/>
</svg>
