     <svg width="20" height="20" viewBox="0 0 20 20" fill="none" xmlns="http://www.w3.org/2000/svg">
                    <path d="M8.57711 11.6809C8.53911 10.8543 7.97426 10.834 7.20805 10.834C6.02772 10.834 5.83203 11.116 5.83203 12.2229V13.6117C5.83203 14.7187 6.02772 15.0007 7.20805 15.0007C7.97426 15.0007 8.53911 14.9803 8.57711 14.1537M17.4987 10.834L16.2791 14.0942C16.053 14.6985 15.94 15.0007 15.761 15.0007C15.582 15.0007 15.469 14.6985 15.2429 14.0942L14.0234 10.834M12.2665 10.834H11.4561C11.1322 10.834 10.9703 10.834 10.8425 10.8869C10.4075 11.0669 10.4134 11.4901 10.4134 11.8757C10.4134 12.2612 10.4075 12.6845 10.8425 12.8645C10.9703 12.9173 11.1322 12.9173 11.4561 12.9173C11.7799 12.9173 11.9419 12.9173 12.0696 12.9702C12.5046 13.1502 12.4987 13.5734 12.4987 13.959C12.4987 14.3446 12.5046 14.7677 12.0696 14.9478C11.9419 15.0007 11.7799 15.0007 11.4561 15.0007H10.5734" stroke="#1D2739" stroke-width="1.5" stroke-linecap="round"/>
                    <path d="M12.5 18.3327H8.93942C6.22172 18.3327 4.86288 18.3327 3.91923 17.6678C3.64885 17.4773 3.40882 17.2514 3.20642 16.9969C2.5 16.1088 2.5 14.8298 2.5 12.2721V10.1508C2.5 7.68156 2.5 6.4469 2.89078 5.46081C3.51901 3.87553 4.84762 2.62508 6.53197 2.03381C7.57969 1.66602 8.8915 1.66602 11.5152 1.66602C13.0144 1.66602 13.764 1.66602 14.3627 1.87618C15.3252 2.21406 16.0843 2.9286 16.4433 3.83447C16.6667 4.39795 16.6667 5.10347 16.6667 6.5145V8.33268" stroke="#1D2739" stroke-width="1.5" stroke-linecap="round" stroke-linejoin="round"/>
                    <path d="M2.5 9.99935C2.5 8.46527 3.74365 7.22157 5.27778 7.22157C5.8326 7.22157 6.4867 7.31879 7.02614 7.17425C7.50543 7.04582 7.8798 6.67145 8.00823 6.19215C8.15278 5.65272 8.05556 4.99862 8.05556 4.44379C8.05556 2.90967 9.29925 1.66602 10.8333 1.66602" stroke="#1D2739" stroke-width="1.5" stroke-linecap="round" stroke-linejoin="round"/>
                    </svg>