    <svg width="323" height="19" viewBox="0 0 323 19" fill="none" xmlns="http://www.w3.org/2000/svg">
                <path d="M7.94366 14.9644C7.69072 15.2012 7.35257 15.3337 7.00064 15.3337C6.64872 15.3337 6.31062 15.2012 6.05762 14.9644C3.74093 12.7822 0.636277 10.3444 2.15032 6.80513C2.96895 4.8915 4.93403 3.66699 7.00064 3.66699C9.06727 3.66699 11.0323 4.8915 11.851 6.80513C13.3631 10.3399 10.2661 12.7897 7.94366 14.9644Z" fill="#5B8469" stroke="#5B8469"/>
                <path d="M9.04036 8.91667C9.04036 10.0442 8.12628 10.9583 6.9987 10.9583C5.87111 10.9583 4.95703 10.0442 4.95703 8.91667C4.95703 7.78908 5.87111 6.875 6.9987 6.875C8.12628 6.875 9.04036 7.78908 9.04036 8.91667Z" fill="white" stroke="#5B8469"/>
                <path d="M22.172 15H18.56V14.272L19.736 14.006V6.012L18.56 5.732V5.004H22.172V5.732L20.996 6.012V14.006L22.172 14.272V15ZM26.6641 15.14C26.0015 15.14 25.4088 15.0047 24.8861 14.734C24.3728 14.4633 23.9668 14.0433 23.6681 13.474C23.3788 12.9047 23.2341 12.1767 23.2341 11.29C23.2341 10.366 23.3881 9.61467 23.6961 9.036C24.0041 8.45733 24.4195 8.03267 24.9421 7.762C25.4741 7.49133 26.0761 7.356 26.7481 7.356C27.1308 7.356 27.4995 7.398 27.8541 7.482C28.2088 7.55667 28.4981 7.65 28.7221 7.762L28.3441 8.784C28.1201 8.7 27.8588 8.62067 27.5601 8.546C27.2615 8.47133 26.9815 8.434 26.7201 8.434C26.2161 8.434 25.8008 8.54133 25.4741 8.756C25.1475 8.97067 24.9048 9.288 24.7461 9.708C24.5875 10.128 24.5081 10.6507 24.5081 11.276C24.5081 11.8733 24.5875 12.382 24.7461 12.802C24.9048 13.222 25.1428 13.5393 25.4601 13.754C25.7775 13.9687 26.1741 14.076 26.6501 14.076C27.0608 14.076 27.4201 14.034 27.7281 13.95C28.0455 13.866 28.3348 13.7633 28.5961 13.642V14.734C28.3441 14.8647 28.0641 14.9627 27.7561 15.028C27.4575 15.1027 27.0935 15.14 26.6641 15.14ZM36.6247 11.234C36.6247 11.8593 36.5407 12.4147 36.3727 12.9C36.214 13.376 35.9807 13.782 35.6727 14.118C35.374 14.454 35.0054 14.7107 34.5667 14.888C34.1374 15.056 33.6567 15.14 33.1247 15.14C32.63 15.14 32.1727 15.056 31.7527 14.888C31.3327 14.7107 30.9687 14.454 30.6607 14.118C30.3527 13.782 30.11 13.376 29.9327 12.9C29.7647 12.4147 29.6807 11.8593 29.6807 11.234C29.6807 10.4033 29.8207 9.70333 30.1007 9.134C30.3807 8.55533 30.782 8.11667 31.3047 7.818C31.8274 7.51 32.448 7.356 33.1667 7.356C33.848 7.356 34.4454 7.51 34.9587 7.818C35.4814 8.11667 35.8874 8.55533 36.1767 9.134C36.4754 9.70333 36.6247 10.4033 36.6247 11.234ZM30.9547 11.234C30.9547 11.822 31.0294 12.3353 31.1787 12.774C31.3374 13.2033 31.58 13.5347 31.9067 13.768C32.2334 14.0013 32.6487 14.118 33.1527 14.118C33.6567 14.118 34.072 14.0013 34.3987 13.768C34.7254 13.5347 34.9634 13.2033 35.1127 12.774C35.2714 12.3353 35.3507 11.822 35.3507 11.234C35.3507 10.6367 35.2714 10.128 35.1127 9.708C34.954 9.288 34.7114 8.966 34.3847 8.742C34.0674 8.50867 33.652 8.392 33.1387 8.392C32.3734 8.392 31.818 8.644 31.4727 9.148C31.1274 9.652 30.9547 10.3473 30.9547 11.234ZM41.9093 7.356C42.8053 7.356 43.4819 7.57533 43.9393 8.014C44.3966 8.44333 44.6253 9.14333 44.6253 10.114V15H43.4073V10.198C43.4073 9.59133 43.2719 9.13867 43.0013 8.84C42.7306 8.54133 42.3059 8.392 41.7273 8.392C40.8966 8.392 40.3226 8.62533 40.0053 9.092C39.6879 9.55867 39.5293 10.2307 39.5293 11.108V15H38.2973V7.496H39.2913L39.4733 8.518H39.5433C39.7113 8.25667 39.9166 8.042 40.1593 7.874C40.4113 7.69667 40.6866 7.566 40.9853 7.482C41.2839 7.398 41.5919 7.356 41.9093 7.356ZM47.9036 7.496V15H46.6716V7.496H47.9036ZM47.3016 4.682C47.4882 4.682 47.6516 4.74733 47.7916 4.878C47.9409 4.99933 48.0156 5.19533 48.0156 5.466C48.0156 5.72733 47.9409 5.92333 47.7916 6.054C47.6516 6.18467 47.4882 6.25 47.3016 6.25C47.0962 6.25 46.9236 6.18467 46.7836 6.054C46.6436 5.92333 46.5736 5.72733 46.5736 5.466C46.5736 5.19533 46.6436 4.99933 46.7836 4.878C46.9236 4.74733 47.0962 4.682 47.3016 4.682ZM53.0109 15.14C52.3483 15.14 51.7556 15.0047 51.2329 14.734C50.7196 14.4633 50.3136 14.0433 50.0149 13.474C49.7256 12.9047 49.5809 12.1767 49.5809 11.29C49.5809 10.366 49.7349 9.61467 50.0429 9.036C50.3509 8.45733 50.7663 8.03267 51.2889 7.762C51.8209 7.49133 52.4229 7.356 53.0949 7.356C53.4776 7.356 53.8463 7.398 54.2009 7.482C54.5556 7.55667 54.8449 7.65 55.0689 7.762L54.6909 8.784C54.4669 8.7 54.2056 8.62067 53.9069 8.546C53.6083 8.47133 53.3283 8.434 53.0669 8.434C52.5629 8.434 52.1476 8.54133 51.8209 8.756C51.4943 8.97067 51.2516 9.288 51.0929 9.708C50.9343 10.128 50.8549 10.6507 50.8549 11.276C50.8549 11.8733 50.9343 12.382 51.0929 12.802C51.2516 13.222 51.4896 13.5393 51.8069 13.754C52.1243 13.9687 52.5209 14.076 52.9969 14.076C53.4076 14.076 53.7669 14.034 54.0749 13.95C54.3923 13.866 54.6816 13.7633 54.9429 13.642V14.734C54.6909 14.8647 54.4109 14.9627 54.1029 15.028C53.8043 15.1027 53.4403 15.14 53.0109 15.14ZM63.1362 15H61.8762V6.11H58.7542V5.004H66.2442V6.11H63.1362V15ZM72.8431 11.234C72.8431 11.8593 72.7591 12.4147 72.5911 12.9C72.4325 13.376 72.1991 13.782 71.8911 14.118C71.5925 14.454 71.2238 14.7107 70.7851 14.888C70.3558 15.056 69.8751 15.14 69.3431 15.14C68.8485 15.14 68.3911 15.056 67.9711 14.888C67.5511 14.7107 67.1871 14.454 66.8791 14.118C66.5711 13.782 66.3285 13.376 66.1511 12.9C65.9831 12.4147 65.8991 11.8593 65.8991 11.234C65.8991 10.4033 66.0391 9.70333 66.3191 9.134C66.5991 8.55533 67.0005 8.11667 67.5231 7.818C68.0458 7.51 68.6665 7.356 69.3851 7.356C70.0665 7.356 70.6638 7.51 71.1771 7.818C71.6998 8.11667 72.1058 8.55533 72.3951 9.134C72.6938 9.70333 72.8431 10.4033 72.8431 11.234ZM67.1731 11.234C67.1731 11.822 67.2478 12.3353 67.3971 12.774C67.5558 13.2033 67.7985 13.5347 68.1251 13.768C68.4518 14.0013 68.8671 14.118 69.3711 14.118C69.8751 14.118 70.2905 14.0013 70.6171 13.768C70.9438 13.5347 71.1818 13.2033 71.3311 12.774C71.4898 12.3353 71.5691 11.822 71.5691 11.234C71.5691 10.6367 71.4898 10.128 71.3311 9.708C71.1725 9.288 70.9298 8.966 70.6031 8.742C70.2858 8.50867 69.8705 8.392 69.3571 8.392C68.5918 8.392 68.0365 8.644 67.6911 9.148C67.3458 9.652 67.1731 10.3473 67.1731 11.234ZM79.0863 10.758C79.0303 10.562 78.9743 10.3707 78.9183 10.184C78.8623 9.988 78.8109 9.806 78.7643 9.638C78.7269 9.46067 78.6896 9.29733 78.6523 9.148C78.6149 8.99867 78.5869 8.87267 78.5683 8.77H78.5123C78.4936 8.87267 78.4656 8.99867 78.4283 9.148C78.4003 9.29733 78.3629 9.46067 78.3163 9.638C78.2789 9.81533 78.2323 10.002 78.1763 10.198C78.1296 10.3847 78.0736 10.576 78.0083 10.772L76.6643 14.986H75.2643L73.2063 7.482H74.4803L75.5163 11.486C75.5909 11.7567 75.6609 12.032 75.7263 12.312C75.7916 12.5827 75.8476 12.844 75.8943 13.096C75.9503 13.3387 75.9876 13.5487 76.0063 13.726H76.0623C76.0903 13.614 76.1229 13.474 76.1603 13.306C76.1976 13.138 76.2349 12.9607 76.2723 12.774C76.3189 12.5873 76.3656 12.4007 76.4123 12.214C76.4683 12.0273 76.5196 11.8593 76.5663 11.71L77.8963 7.482H79.2403L80.5283 11.71C80.5936 11.9247 80.6589 12.1533 80.7243 12.396C80.7989 12.6387 80.8643 12.8767 80.9203 13.11C80.9763 13.334 81.0136 13.5347 81.0323 13.712H81.0883C81.1069 13.5533 81.1396 13.3573 81.1863 13.124C81.2423 12.8813 81.3029 12.62 81.3683 12.34C81.4429 12.0507 81.5176 11.766 81.5923 11.486L82.6423 7.482H83.9023L81.8163 14.986H80.3743L79.0863 10.758ZM87.8661 7.356C88.5101 7.356 89.0608 7.496 89.5181 7.776C89.9848 8.056 90.3395 8.45267 90.5821 8.966C90.8341 9.47 90.9601 10.0627 90.9601 10.744V11.486H85.8221C85.8408 12.3353 86.0555 12.984 86.4661 13.432C86.8861 13.8707 87.4695 14.09 88.2161 14.09C88.6921 14.09 89.1121 14.048 89.4761 13.964C89.8495 13.8707 90.2321 13.74 90.6241 13.572V14.65C90.2415 14.818 89.8635 14.9393 89.4901 15.014C89.1168 15.098 88.6735 15.14 88.1601 15.14C87.4508 15.14 86.8208 14.9953 86.2701 14.706C85.7288 14.4167 85.3041 13.9873 84.9961 13.418C84.6975 12.8393 84.5481 12.1347 84.5481 11.304C84.5481 10.4827 84.6835 9.778 84.9541 9.19C85.2341 8.602 85.6215 8.14933 86.1161 7.832C86.6201 7.51467 87.2035 7.356 87.8661 7.356ZM87.8521 8.364C87.2641 8.364 86.7975 8.55533 86.4521 8.938C86.1161 9.31133 85.9155 9.834 85.8501 10.506H89.6721C89.6721 10.0767 89.6068 9.70333 89.4761 9.386C89.3455 9.06867 89.1448 8.82133 88.8741 8.644C88.6128 8.45733 88.2721 8.364 87.8521 8.364ZM96.0905 7.356C96.2305 7.356 96.3798 7.36533 96.5385 7.384C96.7065 7.39333 96.8511 7.412 96.9725 7.44L96.8185 8.574C96.6971 8.546 96.5618 8.52267 96.4125 8.504C96.2725 8.48533 96.1371 8.476 96.0065 8.476C95.7171 8.476 95.4418 8.53667 95.1805 8.658C94.9191 8.77933 94.6858 8.952 94.4805 9.176C94.2751 9.39067 94.1118 9.652 93.9905 9.96C93.8785 10.268 93.8225 10.6133 93.8225 10.996V15H92.5905V7.496H93.5985L93.7385 8.868H93.7945C93.9531 8.588 94.1445 8.336 94.3685 8.112C94.5925 7.87867 94.8491 7.69667 95.1385 7.566C95.4278 7.426 95.7451 7.356 96.0905 7.356ZM97.3495 13.53C97.2655 13.8567 97.1582 14.2113 97.0275 14.594C96.8968 14.9767 96.7522 15.3547 96.5935 15.728C96.4442 16.1107 96.2948 16.47 96.1455 16.806H95.2355C95.3288 16.4513 95.4175 16.0687 95.5015 15.658C95.5948 15.2567 95.6788 14.86 95.7535 14.468C95.8282 14.0667 95.8888 13.7027 95.9355 13.376H97.2515L97.3495 13.53ZM109.198 11.234C109.198 11.8593 109.114 12.4147 108.946 12.9C108.788 13.376 108.554 13.782 108.246 14.118C107.948 14.454 107.579 14.7107 107.14 14.888C106.711 15.056 106.23 15.14 105.698 15.14C105.204 15.14 104.746 15.056 104.326 14.888C103.906 14.7107 103.542 14.454 103.234 14.118C102.926 13.782 102.684 13.376 102.506 12.9C102.338 12.4147 102.254 11.8593 102.254 11.234C102.254 10.4033 102.394 9.70333 102.674 9.134C102.954 8.55533 103.356 8.11667 103.878 7.818C104.401 7.51 105.022 7.356 105.74 7.356C106.422 7.356 107.019 7.51 107.532 7.818C108.055 8.11667 108.461 8.55533 108.75 9.134C109.049 9.70333 109.198 10.4033 109.198 11.234ZM103.528 11.234C103.528 11.822 103.603 12.3353 103.752 12.774C103.911 13.2033 104.154 13.5347 104.48 13.768C104.807 14.0013 105.222 14.118 105.726 14.118C106.23 14.118 106.646 14.0013 106.972 13.768C107.299 13.5347 107.537 13.2033 107.686 12.774C107.845 12.3353 107.924 11.822 107.924 11.234C107.924 10.6367 107.845 10.128 107.686 9.708C107.528 9.288 107.285 8.966 106.958 8.742C106.641 8.50867 106.226 8.392 105.712 8.392C104.947 8.392 104.392 8.644 104.046 9.148C103.701 9.652 103.528 10.3473 103.528 11.234ZM114.329 8.448H112.439V15H111.207V8.448H109.891V7.874L111.207 7.454V7.02C111.207 6.376 111.3 5.85333 111.487 5.452C111.683 5.05067 111.963 4.75667 112.327 4.57C112.691 4.38333 113.13 4.29 113.643 4.29C113.942 4.29 114.212 4.318 114.455 4.374C114.707 4.42067 114.922 4.47667 115.099 4.542L114.777 5.508C114.628 5.46133 114.455 5.41467 114.259 5.368C114.063 5.32133 113.862 5.298 113.657 5.298C113.246 5.298 112.938 5.438 112.733 5.718C112.537 5.98867 112.439 6.418 112.439 7.006V7.496H114.329V8.448ZM119.145 8.448H117.255V15H116.023V8.448H114.707V7.874L116.023 7.454V7.02C116.023 6.376 116.116 5.85333 116.303 5.452C116.499 5.05067 116.779 4.75667 117.143 4.57C117.507 4.38333 117.946 4.29 118.459 4.29C118.758 4.29 119.028 4.318 119.271 4.374C119.523 4.42067 119.738 4.47667 119.915 4.542L119.593 5.508C119.444 5.46133 119.271 5.41467 119.075 5.368C118.879 5.32133 118.678 5.298 118.473 5.298C118.062 5.298 117.754 5.438 117.549 5.718C117.353 5.98867 117.255 6.418 117.255 7.006V7.496H119.145V8.448ZM130.026 15L128.822 11.906H124.86L123.67 15H122.396L126.302 4.962H127.436L131.328 15H130.026ZM127.324 7.762C127.296 7.68733 127.25 7.552 127.184 7.356C127.119 7.16 127.054 6.95933 126.988 6.754C126.932 6.53933 126.886 6.376 126.848 6.264C126.802 6.45067 126.75 6.642 126.694 6.838C126.648 7.02467 126.596 7.19733 126.54 7.356C126.494 7.51467 126.452 7.65 126.414 7.762L125.28 10.786H128.444L127.324 7.762ZM131.366 18.36C131.132 18.36 130.927 18.3413 130.75 18.304C130.572 18.276 130.418 18.2387 130.288 18.192V17.198C130.428 17.2353 130.572 17.268 130.722 17.296C130.871 17.324 131.034 17.338 131.212 17.338C131.51 17.338 131.758 17.254 131.954 17.086C132.15 16.9273 132.248 16.6193 132.248 16.162V7.496H133.48V16.12C133.48 16.5867 133.405 16.988 133.256 17.324C133.106 17.66 132.878 17.9167 132.57 18.094C132.262 18.2713 131.86 18.36 131.366 18.36ZM132.15 5.466C132.15 5.19533 132.22 4.99933 132.36 4.878C132.5 4.74733 132.672 4.682 132.878 4.682C133.064 4.682 133.228 4.74733 133.368 4.878C133.517 4.99933 133.592 5.19533 133.592 5.466C133.592 5.72733 133.517 5.92333 133.368 6.054C133.228 6.18467 133.064 6.25 132.878 6.25C132.672 6.25 132.5 6.18467 132.36 6.054C132.22 5.92333 132.15 5.72733 132.15 5.466ZM142.101 11.234C142.101 11.8593 142.017 12.4147 141.849 12.9C141.69 13.376 141.457 13.782 141.149 14.118C140.85 14.454 140.482 14.7107 140.043 14.888C139.614 15.056 139.133 15.14 138.601 15.14C138.106 15.14 137.649 15.056 137.229 14.888C136.809 14.7107 136.445 14.454 136.137 14.118C135.829 13.782 135.586 13.376 135.409 12.9C135.241 12.4147 135.157 11.8593 135.157 11.234C135.157 10.4033 135.297 9.70333 135.577 9.134C135.857 8.55533 136.258 8.11667 136.781 7.818C137.304 7.51 137.924 7.356 138.643 7.356C139.324 7.356 139.922 7.51 140.435 7.818C140.958 8.11667 141.364 8.55533 141.653 9.134C141.952 9.70333 142.101 10.4033 142.101 11.234ZM136.431 11.234C136.431 11.822 136.506 12.3353 136.655 12.774C136.814 13.2033 137.056 13.5347 137.383 13.768C137.71 14.0013 138.125 14.118 138.629 14.118C139.133 14.118 139.548 14.0013 139.875 13.768C140.202 13.5347 140.44 13.2033 140.589 12.774C140.748 12.3353 140.827 11.822 140.827 11.234C140.827 10.6367 140.748 10.128 140.589 9.708C140.43 9.288 140.188 8.966 139.861 8.742C139.544 8.50867 139.128 8.392 138.615 8.392C137.85 8.392 137.294 8.644 136.949 9.148C136.604 9.652 136.431 10.3473 136.431 11.234ZM148.66 12.928C148.66 13.4133 148.538 13.8193 148.296 14.146C148.053 14.4727 147.708 14.72 147.26 14.888C146.812 15.056 146.28 15.14 145.664 15.14C145.141 15.14 144.688 15.098 144.306 15.014C143.932 14.93 143.601 14.8133 143.312 14.664V13.544C143.61 13.6933 143.97 13.8333 144.39 13.964C144.819 14.0853 145.253 14.146 145.692 14.146C146.317 14.146 146.77 14.048 147.05 13.852C147.33 13.6467 147.47 13.376 147.47 13.04C147.47 12.8533 147.418 12.6853 147.316 12.536C147.213 12.3867 147.026 12.2373 146.756 12.088C146.494 11.9387 146.116 11.7707 145.622 11.584C145.136 11.3973 144.721 11.2107 144.376 11.024C144.03 10.8373 143.764 10.6133 143.578 10.352C143.391 10.0907 143.298 9.75467 143.298 9.344C143.298 8.70933 143.554 8.21933 144.068 7.874C144.59 7.52867 145.272 7.356 146.112 7.356C146.569 7.356 146.994 7.40267 147.386 7.496C147.787 7.58 148.16 7.70133 148.506 7.86L148.086 8.84C147.88 8.74667 147.661 8.66733 147.428 8.602C147.204 8.52733 146.975 8.47133 146.742 8.434C146.508 8.38733 146.27 8.364 146.028 8.364C145.524 8.364 145.136 8.448 144.866 8.616C144.604 8.77467 144.474 8.994 144.474 9.274C144.474 9.47933 144.534 9.65667 144.656 9.806C144.777 9.946 144.978 10.086 145.258 10.226C145.547 10.3567 145.93 10.5153 146.406 10.702C146.882 10.8793 147.288 11.0613 147.624 11.248C147.96 11.4347 148.216 11.6633 148.394 11.934C148.571 12.1953 148.66 12.5267 148.66 12.928ZM153.091 7.356C153.735 7.356 154.285 7.496 154.743 7.776C155.209 8.056 155.564 8.45267 155.807 8.966C156.059 9.47 156.185 10.0627 156.185 10.744V11.486H151.047C151.065 12.3353 151.28 12.984 151.691 13.432C152.111 13.8707 152.694 14.09 153.441 14.09C153.917 14.09 154.337 14.048 154.701 13.964C155.074 13.8707 155.457 13.74 155.849 13.572V14.65C155.466 14.818 155.088 14.9393 154.715 15.014C154.341 15.098 153.898 15.14 153.385 15.14C152.675 15.14 152.045 14.9953 151.495 14.706C150.953 14.4167 150.529 13.9873 150.221 13.418C149.922 12.8393 149.773 12.1347 149.773 11.304C149.773 10.4827 149.908 9.778 150.179 9.19C150.459 8.602 150.846 8.14933 151.341 7.832C151.845 7.51467 152.428 7.356 153.091 7.356ZM153.077 8.364C152.489 8.364 152.022 8.55533 151.677 8.938C151.341 9.31133 151.14 9.834 151.075 10.506H154.897C154.897 10.0767 154.831 9.70333 154.701 9.386C154.57 9.06867 154.369 8.82133 154.099 8.644C153.837 8.45733 153.497 8.364 153.077 8.364ZM167.612 15L166.408 11.906H162.446L161.256 15H159.982L163.888 4.962H165.022L168.914 15H167.612ZM164.91 7.762C164.882 7.68733 164.835 7.552 164.77 7.356C164.705 7.16 164.639 6.95933 164.574 6.754C164.518 6.53933 164.471 6.376 164.434 6.264C164.387 6.45067 164.336 6.642 164.28 6.838C164.233 7.02467 164.182 7.19733 164.126 7.356C164.079 7.51467 164.037 7.65 164 7.762L162.866 10.786H166.03L164.91 7.762ZM172.493 15.14C171.56 15.14 170.813 14.818 170.253 14.174C169.693 13.5207 169.413 12.55 169.413 11.262C169.413 9.974 169.693 9.00333 170.253 8.35C170.823 7.68733 171.574 7.356 172.507 7.356C172.899 7.356 173.24 7.40733 173.529 7.51C173.819 7.60333 174.071 7.734 174.285 7.902C174.5 8.07 174.682 8.25667 174.831 8.462H174.915C174.906 8.34067 174.887 8.16333 174.859 7.93C174.841 7.68733 174.831 7.496 174.831 7.356V4.36H176.063V15H175.069L174.887 13.992H174.831C174.682 14.2067 174.5 14.4027 174.285 14.58C174.071 14.748 173.814 14.8833 173.515 14.986C173.226 15.0887 172.885 15.14 172.493 15.14ZM172.689 14.118C173.483 14.118 174.038 13.9033 174.355 13.474C174.682 13.0353 174.845 12.3773 174.845 11.5V11.276C174.845 10.3427 174.691 9.62867 174.383 9.134C174.075 8.63 173.506 8.378 172.675 8.378C172.013 8.378 171.513 8.644 171.177 9.176C170.851 9.69867 170.687 10.4033 170.687 11.29C170.687 12.186 170.851 12.8813 171.177 13.376C171.513 13.8707 172.017 14.118 172.689 14.118ZM181.065 7.356C181.709 7.356 182.259 7.496 182.717 7.776C183.183 8.056 183.538 8.45267 183.781 8.966C184.033 9.47 184.159 10.0627 184.159 10.744V11.486H179.021C179.039 12.3353 179.254 12.984 179.665 13.432C180.085 13.8707 180.668 14.09 181.415 14.09C181.891 14.09 182.311 14.048 182.675 13.964C183.048 13.8707 183.431 13.74 183.823 13.572V14.65C183.44 14.818 183.062 14.9393 182.689 15.014C182.315 15.098 181.872 15.14 181.359 15.14C180.649 15.14 180.019 14.9953 179.469 14.706C178.927 14.4167 178.503 13.9873 178.195 13.418C177.896 12.8393 177.747 12.1347 177.747 11.304C177.747 10.4827 177.882 9.778 178.153 9.19C178.433 8.602 178.82 8.14933 179.315 7.832C179.819 7.51467 180.402 7.356 181.065 7.356ZM181.051 8.364C180.463 8.364 179.996 8.55533 179.651 8.938C179.315 9.31133 179.114 9.834 179.049 10.506H182.871C182.871 10.0767 182.805 9.70333 182.675 9.386C182.544 9.06867 182.343 8.82133 182.073 8.644C181.811 8.45733 181.471 8.364 181.051 8.364ZM188.449 7.356C188.944 7.356 189.387 7.44933 189.779 7.636C190.18 7.82267 190.521 8.10733 190.801 8.49H190.871L191.039 7.496H192.019V15.126C192.019 15.8353 191.898 16.428 191.655 16.904C191.412 17.3893 191.044 17.7533 190.549 17.996C190.054 18.2387 189.424 18.36 188.659 18.36C188.118 18.36 187.618 18.318 187.161 18.234C186.713 18.1593 186.312 18.0427 185.957 17.884V16.75C186.2 16.8713 186.466 16.974 186.755 17.058C187.044 17.1513 187.357 17.2213 187.693 17.268C188.029 17.3147 188.374 17.338 188.729 17.338C189.373 17.338 189.877 17.1467 190.241 16.764C190.614 16.3907 190.801 15.8773 190.801 15.224V14.93C190.801 14.818 190.806 14.6593 190.815 14.454C190.824 14.2393 190.834 14.09 190.843 14.006H190.787C190.526 14.3887 190.199 14.6733 189.807 14.86C189.424 15.0467 188.976 15.14 188.463 15.14C187.492 15.14 186.732 14.7993 186.181 14.118C185.64 13.4367 185.369 12.4847 185.369 11.262C185.369 10.4593 185.49 9.76867 185.733 9.19C185.985 8.602 186.34 8.14933 186.797 7.832C187.254 7.51467 187.805 7.356 188.449 7.356ZM188.617 8.392C188.197 8.392 187.838 8.504 187.539 8.728C187.25 8.952 187.026 9.27867 186.867 9.708C186.718 10.1373 186.643 10.66 186.643 11.276C186.643 12.2 186.811 12.9093 187.147 13.404C187.492 13.8893 187.992 14.132 188.645 14.132C189.028 14.132 189.354 14.0853 189.625 13.992C189.896 13.8893 190.12 13.7353 190.297 13.53C190.474 13.3153 190.605 13.0447 190.689 12.718C190.773 12.3913 190.815 12.004 190.815 11.556V11.262C190.815 10.5807 190.736 10.03 190.577 9.61C190.428 9.19 190.19 8.882 189.863 8.686C189.536 8.49 189.121 8.392 188.617 8.392ZM200.394 7.496V15H199.386L199.204 14.006H199.148C198.99 14.2673 198.784 14.482 198.532 14.65C198.28 14.818 198.005 14.9393 197.706 15.014C197.408 15.098 197.095 15.14 196.768 15.14C196.171 15.14 195.667 15.0467 195.256 14.86C194.855 14.664 194.552 14.3653 194.346 13.964C194.141 13.5627 194.038 13.0447 194.038 12.41V7.496H195.284V12.326C195.284 12.9233 195.42 13.3713 195.69 13.67C195.961 13.9687 196.381 14.118 196.95 14.118C197.51 14.118 197.949 14.0153 198.266 13.81C198.593 13.5953 198.822 13.2873 198.952 12.886C199.092 12.4753 199.162 11.9807 199.162 11.402V7.496H200.394ZM206.108 7.356C207.004 7.356 207.681 7.57533 208.138 8.014C208.596 8.44333 208.824 9.14333 208.824 10.114V15H207.606V10.198C207.606 9.59133 207.471 9.13867 207.2 8.84C206.93 8.54133 206.505 8.392 205.926 8.392C205.096 8.392 204.522 8.62533 204.204 9.092C203.887 9.55867 203.728 10.2307 203.728 11.108V15H202.496V7.496H203.49L203.672 8.518H203.742C203.91 8.25667 204.116 8.042 204.358 7.874C204.61 7.69667 204.886 7.566 205.184 7.482C205.483 7.398 205.791 7.356 206.108 7.356ZM221.438 5.004L217.868 15H216.608L213.038 5.004H214.354L216.608 11.416C216.71 11.6867 216.799 11.948 216.874 12.2C216.948 12.452 217.014 12.6947 217.07 12.928C217.135 13.152 217.191 13.376 217.238 13.6C217.284 13.376 217.336 13.1473 217.392 12.914C217.457 12.6807 217.527 12.438 217.602 12.186C217.686 11.934 217.774 11.668 217.868 11.388L220.108 5.004H221.438ZM225.324 15H221.712V14.272L222.888 14.006V6.012L221.712 5.732V5.004H225.324V5.732L224.148 6.012V14.006L225.324 14.272V15ZM228.304 13.53C228.22 13.8567 228.113 14.2113 227.982 14.594C227.851 14.9767 227.707 15.3547 227.548 15.728C227.399 16.1107 227.249 16.47 227.1 16.806H226.19C226.283 16.4513 226.372 16.0687 226.456 15.658C226.549 15.2567 226.633 14.86 226.708 14.468C226.783 14.0667 226.843 13.7027 226.89 13.376H228.206L228.304 13.53ZM233.797 15V5.004H235.057V13.88H239.425V15H233.797ZM243.533 7.37C244.447 7.37 245.124 7.57067 245.563 7.972C246.001 8.37333 246.221 9.01267 246.221 9.89V15H245.325L245.087 13.936H245.031C244.816 14.2067 244.592 14.4353 244.359 14.622C244.135 14.7993 243.873 14.93 243.575 15.014C243.285 15.098 242.931 15.14 242.511 15.14C242.063 15.14 241.657 15.0607 241.293 14.902C240.938 14.7433 240.658 14.5007 240.453 14.174C240.247 13.838 240.145 13.418 240.145 12.914C240.145 12.1673 240.439 11.5933 241.027 11.192C241.615 10.7813 242.52 10.5573 243.743 10.52L245.017 10.478V10.03C245.017 9.40467 244.881 8.97067 244.611 8.728C244.34 8.48533 243.957 8.364 243.463 8.364C243.071 8.364 242.697 8.42467 242.343 8.546C241.988 8.658 241.657 8.78867 241.349 8.938L240.971 8.014C241.297 7.83667 241.685 7.68733 242.133 7.566C242.581 7.43533 243.047 7.37 243.533 7.37ZM243.897 11.374C242.963 11.4113 242.315 11.5607 241.951 11.822C241.596 12.0833 241.419 12.452 241.419 12.928C241.419 13.348 241.545 13.656 241.797 13.852C242.058 14.048 242.389 14.146 242.791 14.146C243.425 14.146 243.953 13.9733 244.373 13.628C244.793 13.2733 245.003 12.732 245.003 12.004V11.332L243.897 11.374ZM250.918 7.356C251.413 7.356 251.856 7.44933 252.248 7.636C252.65 7.82267 252.99 8.10733 253.27 8.49H253.34L253.508 7.496H254.488V15.126C254.488 15.8353 254.367 16.428 254.124 16.904C253.882 17.3893 253.513 17.7533 253.018 17.996C252.524 18.2387 251.894 18.36 251.128 18.36C250.587 18.36 250.088 18.318 249.63 18.234C249.182 18.1593 248.781 18.0427 248.426 17.884V16.75C248.669 16.8713 248.935 16.974 249.224 17.058C249.514 17.1513 249.826 17.2213 250.162 17.268C250.498 17.3147 250.844 17.338 251.198 17.338C251.842 17.338 252.346 17.1467 252.71 16.764C253.084 16.3907 253.27 15.8773 253.27 15.224V14.93C253.27 14.818 253.275 14.6593 253.284 14.454C253.294 14.2393 253.303 14.09 253.312 14.006H253.256C252.995 14.3887 252.668 14.6733 252.276 14.86C251.894 15.0467 251.446 15.14 250.932 15.14C249.962 15.14 249.201 14.7993 248.65 14.118C248.109 13.4367 247.838 12.4847 247.838 11.262C247.838 10.4593 247.96 9.76867 248.202 9.19C248.454 8.602 248.809 8.14933 249.266 7.832C249.724 7.51467 250.274 7.356 250.918 7.356ZM251.086 8.392C250.666 8.392 250.307 8.504 250.008 8.728C249.719 8.952 249.495 9.27867 249.336 9.708C249.187 10.1373 249.112 10.66 249.112 11.276C249.112 12.2 249.28 12.9093 249.616 13.404C249.962 13.8893 250.461 14.132 251.114 14.132C251.497 14.132 251.824 14.0853 252.094 13.992C252.365 13.8893 252.589 13.7353 252.766 13.53C252.944 13.3153 253.074 13.0447 253.158 12.718C253.242 12.3913 253.284 12.004 253.284 11.556V11.262C253.284 10.5807 253.205 10.03 253.046 9.61C252.897 9.19 252.659 8.882 252.332 8.686C252.006 8.49 251.59 8.392 251.086 8.392ZM263.116 11.234C263.116 11.8593 263.032 12.4147 262.864 12.9C262.705 13.376 262.472 13.782 262.164 14.118C261.865 14.454 261.496 14.7107 261.058 14.888C260.628 15.056 260.148 15.14 259.616 15.14C259.121 15.14 258.664 15.056 258.244 14.888C257.824 14.7107 257.46 14.454 257.152 14.118C256.844 13.782 256.601 13.376 256.424 12.9C256.256 12.4147 256.172 11.8593 256.172 11.234C256.172 10.4033 256.312 9.70333 256.592 9.134C256.872 8.55533 257.273 8.11667 257.796 7.818C258.318 7.51 258.939 7.356 259.658 7.356C260.339 7.356 260.936 7.51 261.45 7.818C261.972 8.11667 262.378 8.55533 262.668 9.134C262.966 9.70333 263.116 10.4033 263.116 11.234ZM257.446 11.234C257.446 11.822 257.52 12.3353 257.67 12.774C257.828 13.2033 258.071 13.5347 258.398 13.768C258.724 14.0013 259.14 14.118 259.644 14.118C260.148 14.118 260.563 14.0013 260.89 13.768C261.216 13.5347 261.454 13.2033 261.604 12.774C261.762 12.3353 261.842 11.822 261.842 11.234C261.842 10.6367 261.762 10.128 261.604 9.708C261.445 9.288 261.202 8.966 260.876 8.742C260.558 8.50867 260.143 8.392 259.63 8.392C258.864 8.392 258.309 8.644 257.964 9.148C257.618 9.652 257.446 10.3473 257.446 11.234ZM269.674 12.928C269.674 13.4133 269.553 13.8193 269.31 14.146C269.068 14.4727 268.722 14.72 268.274 14.888C267.826 15.056 267.294 15.14 266.678 15.14C266.156 15.14 265.703 15.098 265.32 15.014C264.947 14.93 264.616 14.8133 264.326 14.664V13.544C264.625 13.6933 264.984 13.8333 265.404 13.964C265.834 14.0853 266.268 14.146 266.706 14.146C267.332 14.146 267.784 14.048 268.064 13.852C268.344 13.6467 268.484 13.376 268.484 13.04C268.484 12.8533 268.433 12.6853 268.33 12.536C268.228 12.3867 268.041 12.2373 267.77 12.088C267.509 11.9387 267.131 11.7707 266.636 11.584C266.151 11.3973 265.736 11.2107 265.39 11.024C265.045 10.8373 264.779 10.6133 264.592 10.352C264.406 10.0907 264.312 9.75467 264.312 9.344C264.312 8.70933 264.569 8.21933 265.082 7.874C265.605 7.52867 266.286 7.356 267.126 7.356C267.584 7.356 268.008 7.40267 268.4 7.496C268.802 7.58 269.175 7.70133 269.52 7.86L269.1 8.84C268.895 8.74667 268.676 8.66733 268.442 8.602C268.218 8.52733 267.99 8.47133 267.756 8.434C267.523 8.38733 267.285 8.364 267.042 8.364C266.538 8.364 266.151 8.448 265.88 8.616C265.619 8.77467 265.488 8.994 265.488 9.274C265.488 9.47933 265.549 9.65667 265.67 9.806C265.792 9.946 265.992 10.086 266.272 10.226C266.562 10.3567 266.944 10.5153 267.42 10.702C267.896 10.8793 268.302 11.0613 268.638 11.248C268.974 11.4347 269.231 11.6633 269.408 11.934C269.586 12.1953 269.674 12.5267 269.674 12.928ZM271.026 14.244C271.026 13.8987 271.11 13.656 271.278 13.516C271.446 13.376 271.646 13.306 271.88 13.306C272.122 13.306 272.328 13.376 272.496 13.516C272.673 13.656 272.762 13.8987 272.762 14.244C272.762 14.58 272.673 14.8227 272.496 14.972C272.328 15.1213 272.122 15.196 271.88 15.196C271.646 15.196 271.446 15.1213 271.278 14.972C271.11 14.8227 271.026 14.58 271.026 14.244Z" fill="#667185"/>
                </svg>