<svg width="20" height="20" viewBox="0 0 20 20" fill="none" xmlns="http://www.w3.org/2000/svg">
<rect width="20" height="20" rx="4" fill="#EBF0EC"/>
<path d="M5.12708 11.8161C5.14406 11.6545 5.26116 11.5243 5.49538 11.2638L6.01091 10.6874C6.13693 10.5279 6.22635 10.25 6.22635 9.9999C6.22635 9.75 6.1369 9.472 6.0109 9.3125L5.49538 8.73616C5.26116 8.47569 5.14405 8.34545 5.12708 8.18384C5.1101 8.02223 5.19758 7.87042 5.37253 7.56679L5.61932 7.13849C5.80597 6.81457 5.89929 6.65262 6.05808 6.58804C6.21687 6.52345 6.39645 6.57442 6.75562 6.67634L7.36574 6.84819C7.59504 6.90106 7.83562 6.87106 8.04499 6.76349L8.21343 6.66631C8.39297 6.55131 8.53107 6.38176 8.60751 6.18247L8.77449 5.68377C8.88428 5.35376 8.93917 5.18876 9.06987 5.09438C9.20057 5 9.37417 5 9.72132 5H10.2787C10.6259 5 10.7995 5 10.9302 5.09438C11.0609 5.18876 11.1158 5.35376 11.2256 5.68377L11.3925 6.18247C11.469 6.38176 11.6071 6.55131 11.7866 6.66631L11.9551 6.76349C12.1644 6.87106 12.405 6.90106 12.6343 6.84819L13.2444 6.67634C13.6036 6.57442 13.7832 6.52345 13.942 6.58804C14.1008 6.65262 14.1941 6.81457 14.3807 7.13849L14.6275 7.56679C14.8025 7.87042 14.8899 8.02223 14.873 8.18384C14.856 8.34545 14.7389 8.47569 14.5047 8.73616L13.9891 9.3125C13.8632 9.472 13.7737 9.75 13.7737 9.9999C13.7737 10.25 13.8631 10.5279 13.9891 10.6874L14.5047 11.2638C14.7389 11.5243 14.856 11.6545 14.873 11.8161C14.8899 11.9778 14.8025 12.1296 14.6275 12.4332L14.3807 12.8615C14.1941 13.1854 14.1008 13.3473 13.942 13.4119C13.7832 13.4765 13.6036 13.4255 13.2444 13.3236L12.6343 13.1517C12.405 13.0988 12.1644 13.1289 11.955 13.2365L11.7866 13.3337C11.607 13.4487 11.469 13.6182 11.3926 13.8175L11.2256 14.3162C11.1158 14.6462 11.0609 14.8112 10.9302 14.9056C10.7995 15 10.6259 15 10.2787 15H9.72132C9.37417 15 9.20057 15 9.06987 14.9056C8.93917 14.8112 8.88428 14.6462 8.77449 14.3162" fill="#5B8469"/>
<path d="M5.12708 11.8161C5.14406 11.6545 5.26116 11.5243 5.49538 11.2638L6.01091 10.6874C6.13693 10.5279 6.22635 10.25 6.22635 9.9999C6.22635 9.75 6.1369 9.472 6.0109 9.3125L5.49538 8.73616C5.26116 8.47569 5.14405 8.34545 5.12708 8.18384C5.1101 8.02223 5.19758 7.87042 5.37253 7.56679L5.61932 7.13849C5.80597 6.81457 5.89929 6.65262 6.05808 6.58804C6.21687 6.52345 6.39645 6.57442 6.75562 6.67634L7.36574 6.84819C7.59504 6.90106 7.83562 6.87106 8.04499 6.76349L8.21343 6.66631C8.39297 6.55131 8.53107 6.38176 8.60751 6.18247L8.77449 5.68377C8.88428 5.35376 8.93917 5.18876 9.06987 5.09438C9.20057 5 9.37417 5 9.72132 5H10.2787C10.6259 5 10.7995 5 10.9302 5.09438C11.0609 5.18876 11.1158 5.35376 11.2256 5.68377L11.3925 6.18247C11.469 6.38176 11.6071 6.55131 11.7866 6.66631L11.9551 6.76349C12.1644 6.87106 12.405 6.90106 12.6343 6.84819L13.2444 6.67634C13.6036 6.57442 13.7832 6.52345 13.942 6.58804C14.1008 6.65262 14.1941 6.81457 14.3807 7.13849L14.6275 7.56679C14.8025 7.87042 14.8899 8.02223 14.873 8.18384C14.856 8.34545 14.7389 8.47569 14.5047 8.73616L13.9891 9.3125C13.8632 9.472 13.7737 9.75 13.7737 9.9999C13.7737 10.25 13.8631 10.5279 13.9891 10.6874L14.5047 11.2638C14.7389 11.5243 14.856 11.6545 14.873 11.8161C14.8899 11.9778 14.8025 12.1296 14.6275 12.4332L14.3807 12.8615C14.1941 13.1854 14.1008 13.3473 13.942 13.4119C13.7832 13.4765 13.6036 13.4255 13.2444 13.3236L12.6343 13.1517C12.405 13.0988 12.1644 13.1289 11.955 13.2365L11.7866 13.3337C11.607 13.4487 11.469 13.6182 11.3926 13.8175L11.2256 14.3162C11.1158 14.6462 11.0609 14.8112 10.9302 14.9056C10.7995 15 10.6259 15 10.2787 15H9.72132C9.37417 15 9.20057 15 9.06987 14.9056C8.93917 14.8112 8.88428 14.6462 8.77449 14.3162" stroke="#326543" stroke-linecap="round"/>
<path d="M5.36945 13.3889C5.90945 12.8489 7.74546 11.0309 7.92546 10.8209C8.11574 10.5989 7.96146 10.2989 8.05326 9.36892C8.09767 8.91892 8.19447 8.5818 8.47146 8.33092C8.80146 8.01892 9.07143 8.01892 10.0014 7.99793C10.8114 8.01892 10.9074 7.92892 10.9914 8.13893C11.0514 8.28893 10.8714 8.37892 10.6554 8.61893C10.1754 9.09892 9.89343 9.33892 9.86643 9.48892C9.67143 10.1489 10.4394 10.5389 10.8594 10.1189C11.0183 9.96007 11.7534 9.21892 11.8254 9.15892C11.8794 9.11092 12.0087 9.11322 12.0714 9.18892C12.1254 9.24197 12.1314 9.24892 12.1254 9.48892C12.1199 9.71107 12.1224 10.03 12.123 10.3589C12.1239 10.7851 12.1014 11.2589 11.9214 11.4989C11.5614 12.0389 10.9614 12.0689 10.4214 12.0929C9.91143 12.1229 9.49143 12.0689 9.35943 12.1649C9.25143 12.2189 8.68146 12.8189 7.99146 13.5089L6.76146 14.7389C5.74146 15.5489 4.61946 14.2889 5.36945 13.3889Z" stroke="white" stroke-linecap="round"/>
</svg>
