<svg width="44" height="44" viewBox="0 0 44 44" fill="none" xmlns="http://www.w3.org/2000/svg">
<rect width="44" height="44" rx="22" fill="#6888E5"/>
<path d="M23.2193 18.2136L20.4473 19.5442C20.234 19.6466 20.006 19.6723 19.7736 19.6202C19.6216 19.5861 19.5455 19.5691 19.4843 19.5621C18.7239 19.4753 18.25 20.0771 18.25 20.7691V21.1489C18.25 21.8409 18.7239 22.4427 19.4843 22.3559C19.5455 22.3489 19.6216 22.3318 19.7736 22.2978C20.006 22.2457 20.234 22.2714 20.4473 22.3738L23.2193 23.7044C23.8556 24.0099 24.1737 24.1626 24.5285 24.0435C24.8832 23.9245 25.005 23.669 25.2485 23.1582C25.9172 21.7553 25.9172 20.1627 25.2485 18.7598C25.005 18.2489 24.8832 17.9935 24.5285 17.8744C24.1737 17.7554 23.8556 17.9081 23.2193 18.2136Z" stroke="white" stroke-linecap="round" stroke-linejoin="round"/>
<path d="M21.7755 25.6539L21.1541 26.166C19.7534 25.0551 19.9246 24.5254 19.9246 22.416H20.397C20.5887 23.6081 21.0409 24.1727 21.6649 24.5814C22.0493 24.8332 22.1286 25.3629 21.7755 25.6539Z" fill="white" stroke="white" stroke-linecap="round" stroke-linejoin="round"/>
<path d="M20.125 22.209V19.709" stroke="white" stroke-width="1.5" stroke-linecap="round" stroke-linejoin="round"/>
</svg>
