<svg width="20" height="20" viewBox="0 0 20 20" fill="none" xmlns="http://www.w3.org/2000/svg">
<path d="M16.68 1.66797C15.7522 1.66797 15 3.90654 15 6.66797H16.68C17.4897 6.66797 17.8945 6.66797 18.1451 6.38843C18.3958 6.10888 18.3521 5.74074 18.2648 5.00448C18.0345 3.06083 17.4119 1.66797 16.68 1.66797Z" stroke="#1D2739" stroke-width="1.5"/>
<path d="M15.0013 6.71319V15.5395C15.0013 16.7992 15.0013 17.4291 14.6163 17.677C13.9872 18.0822 13.0147 17.2325 12.5256 16.9241C12.1214 16.6691 11.9194 16.5417 11.6951 16.5344C11.4527 16.5264 11.2471 16.6486 10.8104 16.9241L9.21797 17.9283C8.78838 18.1991 8.57363 18.3346 8.33463 18.3346C8.09564 18.3346 7.88085 18.1991 7.4513 17.9283L5.85891 16.9241C5.45476 16.6691 5.25268 16.5417 5.02841 16.5344C4.78607 16.5264 4.58041 16.6486 4.14369 16.9241C3.65459 17.2325 2.68203 18.0822 2.05293 17.677C1.66797 17.4291 1.66797 16.7992 1.66797 15.5395V6.71319C1.66797 4.33484 1.66797 3.14568 2.4002 2.40683C3.13244 1.66797 4.31094 1.66797 6.66797 1.66797H16.668" fill="white"/>
<path d="M15.0013 6.71319V15.5395C15.0013 16.7992 15.0013 17.4291 14.6163 17.677C13.9872 18.0822 13.0147 17.2325 12.5256 16.9241C12.1214 16.6691 11.9194 16.5417 11.6951 16.5344C11.4527 16.5264 11.2471 16.6486 10.8104 16.9241L9.21797 17.9283C8.78839 18.1991 8.57363 18.3346 8.33463 18.3346C8.09564 18.3346 7.88085 18.1991 7.4513 17.9283L5.85891 16.9241C5.45476 16.6691 5.25268 16.5417 5.02841 16.5344C4.78607 16.5264 4.58041 16.6486 4.14369 16.9241C3.65459 17.2325 2.68203 18.0822 2.05293 17.677C1.66797 17.4291 1.66797 16.7992 1.66797 15.5395V6.71319C1.66797 4.33484 1.66797 3.14568 2.4002 2.40683C3.13244 1.66797 4.31094 1.66797 6.66797 1.66797H16.668" stroke="#1D2739" stroke-width="1.5" stroke-linecap="round" stroke-linejoin="round"/>
<path d="M5 5H11.6667" stroke="#1D2739" stroke-width="1.5" stroke-linecap="round" stroke-linejoin="round"/>
<path d="M6.66667 8.33203H5" stroke="#1D2739" stroke-width="1.5" stroke-linecap="round" stroke-linejoin="round"/>
<path d="M10.418 9.0612C9.72764 9.0612 9.16797 9.55086 9.16797 10.1549C9.16797 10.759 9.72764 11.2487 10.418 11.2487C11.1083 11.2487 11.668 11.7384 11.668 12.3424C11.668 12.9465 11.1083 13.4362 10.418 13.4362M10.418 9.0612C10.9622 9.0612 11.4252 9.36553 11.5968 9.79036M10.418 9.0612V8.33203M10.418 13.4362C9.87372 13.4362 9.41072 13.1319 9.23914 12.707M10.418 13.4362V14.1654" stroke="#1D2739" stroke-width="1.5" stroke-linecap="round"/>
</svg>
