<svg width="46" height="32" viewBox="0 0 46 32" fill="none" xmlns="http://www.w3.org/2000/svg">
<rect x="0.5" y="0.5" width="45" height="31" rx="3.5" fill="white"/>
<rect x="0.5" y="0.5" width="45" height="31" rx="3.5" stroke="#F2F4F7"/>
<path fill-rule="evenodd" clip-rule="evenodd" d="M19.3414 14.2094H13.5013H13.4043C13.8502 8.47341 16.1802 6.73831 22.2497 6.66856C22.3431 6.66797 22.4339 6.66797 22.5262 6.66797H22.6902C22.7827 6.66797 22.8733 6.66797 22.967 6.66856C23.7357 6.67737 24.4439 6.7132 25.0967 6.78001C25.0488 6.78163 25.0019 6.78324 24.9492 6.78897C24.9003 6.79382 24.8391 6.79746 24.7668 6.80176C24.0486 6.84447 22.2376 6.95217 20.5806 8.95388C19.6011 10.1385 19.504 14.2094 19.504 14.2094H19.3414ZM18.9093 21.1891C18.2245 22.0455 17.2388 21.9879 17.225 21.9871V25.4677C14.7862 24.4831 13.687 22.4301 13.4003 18.6446C13.3657 18.1885 13.345 17.7877 13.332 17.4555L19.5041 17.4532L19.5 17.8205L19.5 17.8212L19.5 17.8223C19.4927 18.4576 19.4787 19.6893 19.4802 19.7304C19.4849 19.9112 19.4392 20.5272 18.9093 21.1891ZM27.0507 7.1239C30.1522 7.94989 31.4955 10.0142 31.8162 14.255C31.916 15.5722 31.9046 16.4496 31.9046 16.4496C31.9046 16.4496 31.9162 17.3274 31.8163 18.6445C31.3798 24.4172 29.0524 26.1609 22.9671 26.231C22.8734 26.2316 22.3432 26.2316 22.2498 26.231C21.1943 26.2186 20.2552 26.1548 19.4162 26.0299C19.4198 26.0299 19.4234 26.0299 19.427 26.0299C19.4527 26.0296 19.478 26.0294 19.5041 26.0276C20.6051 25.9645 22.138 25.1153 23.0504 23.1398C23.4489 22.2759 23.556 20.7338 23.556 20.7338V17.4539H23.5563V17.453H26.8893H27.051V14.2091H26.8893H23.5565C23.5565 14.2091 23.5565 14.2086 23.5563 14.2085C23.5563 14.2085 23.5548 14.2051 23.5536 14.1989L23.5527 14.1947C23.5519 14.192 23.5512 14.1893 23.5504 14.1861C23.5494 14.1823 23.5483 14.178 23.5466 14.1727C23.5464 14.1715 23.5462 14.1701 23.546 14.1686C23.5456 14.1666 23.5453 14.1643 23.5451 14.1624C23.5426 14.153 23.5404 14.1439 23.5386 14.1314C23.5378 14.1283 23.5372 14.1247 23.5367 14.1209C23.5364 14.1184 23.536 14.1159 23.5356 14.1135C23.5332 14.1013 23.5313 14.089 23.5294 14.0744C23.528 14.0687 23.5275 14.0616 23.5271 14.0549C23.527 14.0534 23.5269 14.0518 23.5267 14.0503C23.5244 14.0349 23.5228 14.0202 23.5209 14.0026C23.5206 13.999 23.5205 13.9952 23.5203 13.9914C23.5201 13.9857 23.5199 13.98 23.5194 13.9747C23.5192 13.971 23.5189 13.9674 23.5187 13.9637C23.5177 13.9487 23.5167 13.9336 23.5165 13.9167C23.5163 13.9117 23.5163 13.9064 23.5163 13.9011C23.5163 13.8958 23.5163 13.8905 23.5162 13.8854C23.5162 13.8781 23.516 13.8708 23.5159 13.8635C23.5156 13.8486 23.5153 13.8335 23.5162 13.8172C23.5162 13.8115 23.5165 13.8054 23.5169 13.7992C23.5172 13.7945 23.5175 13.7897 23.5176 13.785C23.5182 13.759 23.5193 13.7332 23.522 13.7044C23.5223 13.7002 23.5228 13.6958 23.5233 13.6913C23.5238 13.6864 23.5244 13.6814 23.5247 13.6766C23.5275 13.6452 23.5311 13.6135 23.536 13.5797C23.5363 13.5765 23.5369 13.5732 23.5376 13.5699C23.5382 13.5667 23.5388 13.5635 23.5391 13.5605C23.5449 13.5223 23.5513 13.4835 23.5596 13.4427C23.5596 13.4418 23.5599 13.4405 23.5602 13.4392C23.6193 13.1556 23.7458 12.8066 23.9994 12.4111C24.6814 11.35 26.6179 11.4 26.9893 11.4196C27.0282 11.422 27.0501 11.4236 27.0507 11.4236V7.1239ZM19.2929 26.0097C19.2951 26.0098 19.2974 26.0098 19.2996 26.0098C19.2974 26.0098 19.2952 26.0098 19.293 26.0097H19.2929Z" fill="#659AD2"/>
</svg>
