<svg width="20" height="20" viewBox="0 0 20 20" fill="none" xmlns="http://www.w3.org/2000/svg">
<path d="M9.9972 1.66797C7.49073 1.66797 5.86552 3.35046 3.94346 3.96372C3.16194 4.21308 2.77118 4.33775 2.61303 4.51351C2.45489 4.68927 2.40858 4.94609 2.31597 5.45974C1.32489 10.9563 3.49112 16.038 8.65728 18.0159C9.21237 18.2284 9.48987 18.3346 9.99995 18.3346C10.51 18.3346 10.7875 18.2284 11.3425 18.0159C16.5084 16.0379 18.6725 10.9563 17.6812 5.45974C17.5885 4.946 17.5422 4.68914 17.384 4.51338C17.2259 4.33762 16.8351 4.21301 16.0536 3.96379C14.1308 3.35059 12.5038 1.66797 9.9972 1.66797Z" stroke="#1D2739" stroke-width="1.5" stroke-linecap="round" stroke-linejoin="round"/>
<path d="M8.61295 8.64844C7.71298 8.64844 7.26298 9.29844 7.16298 9.69844C7.06298 10.0984 7.06298 11.5484 7.12298 12.1484C7.32298 12.8984 7.82298 13.2084 8.31298 13.3084C8.76295 13.3484 10.6629 13.3334 11.2129 13.3334C12.0129 13.3484 12.6129 13.0484 12.8629 12.1484C12.9129 11.8484 12.9629 10.1984 12.8379 9.69844C12.5729 8.89844 11.9129 8.64844 11.4129 8.64844H8.61295Z" fill="white" stroke="#1D2739" stroke-width="1.5" stroke-linecap="round"/>
<path d="M8.54297 8.29748C8.54297 8.24748 8.5498 7.95963 8.55097 7.59748C8.55205 7.26657 8.52297 6.94748 8.68097 6.65548C9.27297 5.47748 10.973 5.59748 11.393 6.79748C11.4657 6.99505 11.4701 7.30825 11.468 7.59748C11.4652 7.96706 11.473 8.29748 11.473 8.29748" stroke="#1D2739" stroke-width="1.5" stroke-linecap="round"/>
</svg>
