<svg width="10" height="10" viewBox="0 0 10 10" fill="none" xmlns="http://www.w3.org/2000/svg">
<path d="M6.21929 1.21358L3.4473 2.5442C3.23396 2.6466 3.00601 2.67226 2.77365 2.6202C2.62157 2.58614 2.54552 2.5691 2.48429 2.56211C1.72393 2.47528 1.25 3.07708 1.25 3.7691V4.14887C1.25 4.8409 1.72393 5.44269 2.48429 5.35586C2.54552 5.34886 2.62158 5.33182 2.77365 5.29778C3.00601 5.24569 3.23396 5.27136 3.4473 5.37378L6.21929 6.7044C6.85558 7.00986 7.17375 7.16257 7.5285 7.04353C7.88321 6.92448 8.00496 6.66903 8.2485 6.15815C8.91717 4.75532 8.91717 3.16267 8.2485 1.7598C8.00496 1.24893 7.88321 0.993488 7.5285 0.874442C7.17375 0.755401 6.85558 0.908126 6.21929 1.21358Z" stroke="white" stroke-linecap="round" stroke-linejoin="round"/>
<path d="M4.77551 8.65389L4.15411 9.16602C2.75345 8.05514 2.92457 7.52539 2.92457 5.41602H3.397C3.58871 6.60806 4.04094 7.17268 4.66493 7.58143C5.0493 7.83318 5.12855 8.36289 4.77551 8.65389Z" fill="white" stroke="white" stroke-linecap="round" stroke-linejoin="round"/>
<path d="M3.125 5.20898V2.70898" stroke="white" stroke-width="1.5" stroke-linecap="round" stroke-linejoin="round"/>
</svg>
