<svg width="20" height="20" viewBox="0 0 20 20" fill="none" xmlns="http://www.w3.org/2000/svg">
<path d="M17.9546 9.204C18.208 9.55925 18.3346 9.73692 18.3346 9.99984C18.3346 10.2628 18.208 10.4404 17.9546 10.7957C16.8162 12.392 13.909 15.8332 10.0013 15.8332C6.09362 15.8332 3.18639 12.392 2.048 10.7957C1.79464 10.4404 1.66797 10.2628 1.66797 9.99984C1.66797 9.73692 1.79464 9.55925 2.048 9.204C3.18639 7.6077 6.09362 4.1665 10.0013 4.1665C13.909 4.1665 16.8162 7.6077 17.9546 9.204Z" stroke="#326543" stroke-width="1.5"/>
<path d="M12.5 10C12.5 8.61925 11.3807 7.5 10 7.5C8.61925 7.5 7.5 8.61925 7.5 10C7.5 11.3807 8.61925 12.5 10 12.5C11.3807 12.5 12.5 11.3807 12.5 10Z" stroke="#326543" stroke-width="1.5"/>
</svg>
